<?xml version="1.0" encoding="utf-8"?>
<!-- Generator: Adobe Illustrator 22.0.1, SVG Export Plug-In . SVG Version: 6.00 Build 0)  -->
<svg version="1.1" id="e24bc711-9e15-4fed-90f5-8f2745b46a2e"
	 xmlns="http://www.w3.org/2000/svg" xmlns:xlink="http://www.w3.org/1999/xlink" x="0px" y="0px" viewBox="0 0 1130 709.4"
	 style="enable-background:new 0 0 1130 709.4;" xml:space="preserve">
<style type="text/css">
	.st0{fill:#E6E6E6;}
	.st1{fill:#FBBEBE;}
	.st2{fill:#2F2E41;}
	.st3{fill:#575A89;}
	.st4{fill:#D0CDE1;}
	.st5{fill:#48B7AD;}
	.st6{fill:#3F3D56;}
	.st7{fill:#FFFFFF;}
	.st8{opacity:0.3;enable-background:new    ;}
	.st9{fill:#A0616A;}
</style>
<title>new_decade</title>
<polygon class="st0" points="1056.6,550.7 802,707.5 273.5,707.5 140.4,491.4 778.1,98.6 "/>
<path class="st1" d="M877.5,453.3l-0.5,13.9l-3.7,29.7l-12.4,1.9l-3.2-12v-15.4c0,0,6.9-10.8,5-18.1S877.5,453.3,877.5,453.3z"/>
<circle class="st2" cx="875.2" cy="439.4" r="15.1"/>
<polygon class="st1" points="837.6,666 838.5,684.7 848.6,682 847.7,666.9 "/>
<polygon class="st1" points="905.8,664.1 910.7,683.6 918.9,681.7 914.5,662.7 "/>
<path class="st1" d="M824.8,554.2l-1.8,6c0,0-5.5,16,0,16.9c5.5,0.9,6.9-14.7,6.9-14.7l3.2-5.5L824.8,554.2z"/>
<polygon class="st3" points="830.8,537.3 823,555.1 834.8,560.3 841.3,537.3 "/>
<polygon class="st2" points="886.2,521.7 900.8,597.7 918.2,664.6 894.9,668.7 865.1,570.7 850,669.6 829.8,667.3 834.9,563.4 
	845.9,519 "/>
<path class="st2" d="M850,683.3c0.9,0,5.5,5,4.1,10.5c-0.9,3.9-1.5,7.9-1.8,11.9c0,0-16.7,5.7-25.4,0.2c-8.7-5.5,8.9-11.7,8.9-11.7
	l0.9-11.9l13.3-2.7V683.3z"/>
<path class="st2" d="M920.3,683.3c0.9,0,5.5,5,4.1,10.5c-0.9,3.9-1.5,7.9-1.8,11.9c0,0-16.7,5.7-25.4,0.2
	c-8.7-5.5,8.9-11.7,8.9-11.7l0.9-11.9l13.3-2.7V683.3z"/>
<circle class="st1" cx="870.6" cy="443" r="12.4"/>
<path class="st3" d="M866.5,489.2l9.2-31.6l3.2,1.8l17.9,44.9l-8.2,22c0,0-40.3-2.7-40.3-3.2s4.1-53.1,4.1-53.1l8-9.2l0.2,6.5
	L866.5,489.2z"/>
<path class="st2" d="M900.3,460.8c0,0-0.5-4.1-3.7-3.2s-19.6-0.1-19.6-0.1s-4.7,5.6,1.3,17.1S891,565,891,565l21.3-5.3l-11-71.4
	L900.3,460.8z"/>
<polygon class="st2" points="863,458.3 841.3,475.9 842.7,506.6 833.5,568.9 845.4,571.6 862.3,461.3 "/>
<path class="st1" d="M898.5,504.8l-10.1,3.2c0,0-7.3,15.1-2.3,16.9c5,1.8,7.1-11.4,7.1-11.4l9.4-3.2L898.5,504.8z"/>
<path class="st2" d="M844,475.5l-0.5-1.5l-2.3,1.5c-2.3,4-3.9,8.3-4.6,12.8c-0.9,6.9-7.8,51.7-7.8,51.7l13.7-1.4L844,475.5z"/>
<polygon class="st3" points="912.3,498.8 896.7,504.3 901.7,514.4 920,506.6 "/>
<path class="st2" d="M895.3,459.9c0.5,0,45.3,26.1,40.3,36.6c-3.1,6.3-8.5,11.2-15.1,13.7l-11-11.4l5.5-4.1l-16.9-11L895.3,459.9z"
	/>
<path class="st2" d="M888.1,434.8c-0.2-2.8-1.6-5.7-4.1-7.1c1.3-2.5,2.4-5.4,1.6-8.1c-0.7-2.1-2.5-3.7-4.7-4.2
	c-1.2-0.2-2.4-0.1-3.6,0l-5.7,0.6c-1.9,0.1-3.7,0.6-5.3,1.4c-2.9,1.8-3.7,5.6-1.9,8.5c0.3,0.5,0.7,1,1.2,1.4
	c-4,3.2-6.6,5.6-8.4,10.3c3-2.5,6.8-3.8,10.7-3.8c5.5-0.3,10.3,3.8,10.7,9.3c0,1.3,0.1,2.7,0.3,4c0.4,1.3,1.5,2.5,2.9,2.3
	c-0.2,0-1.3-3.3-0.5-4.9l0,0c0.2-0.3,0.5-0.6,0.8-0.7c1.2-0.5,2.5,0.1,3,1.3c0,0.1,0.1,0.2,0.1,0.3c0.4,1.7,1.1,3.8,1.8,3.3
	c0.8-0.7,0.5-7.3,0.7-8.4C888,438.5,888.2,436.6,888.1,434.8z"/>
<path class="st4" d="M884,427.6c0,0-12.4,0.8-18.4-0.3"/>
<path class="st2" d="M883.2,426c1.3-2.5,2.4-5.4,1.6-8.1c-0.4-1.2-1.1-2.3-2.2-3.1c1.6,0.7,2.8,2.1,3.3,3.7c0.8,2.7-0.3,5.6-1.6,8.1
	C883.4,426.5,885.8,427.3,883.2,426z"/>
<path class="st5" d="M104.9,606.3l18.5-18.1c-7.3-1.8-14.4-4.4-21.1-7.8c-23.1-11.5-41.2-31-50.8-54.9
	c-21.5-53.7,4.6-114.8,58.3-136.3s114.8,4.6,136.3,58.3c5,12.4,7.5,25.7,7.5,39c0,2.2-0.1,4.5-0.2,6.7c-0.3,4.3-0.8,8.6-1.6,12.8
	c-0.6,6.5-1.9,12.9-3.8,19.2c-8.3,27.8-27.9,53.5-48.6,73.5l-51.1,49.3h47.2c32.9,0,59.5,26.6,59.5,59.5H62.4
	c0-36.4,14-71.4,39.2-97.8C102.6,608.5,103.7,607.4,104.9,606.3z"/>
<path class="st6" d="M231.2,421.7l-45.1,26l-89.6,51.7l-45.1,26c-3.2-8.1-5.4-16.5-6.6-25.1L97.5,470l62.6-36.2l52.6-30.4
	C219.7,408.7,225.8,414.9,231.2,421.7z"/>
<path class="st6" d="M253.4,493.1c-0.3,4.3-0.8,8.6-1.6,12.8c-0.6,6.5-1.9,12.9-3.8,19.2l-146.5,84.6c1.1-1.2,2.2-2.3,3.3-3.4
	l18.5-18.1c-7.3-1.8-14.4-4.4-21.1-7.8L253.4,493.1z"/>
<circle class="st7" cx="148.8" cy="486.4" r="53.8"/>
<path class="st5" d="M544.8,602.3c0,57.9-47,104.8-104.9,104.8c-55.2,0-100.9-42.8-104.6-97.8c-0.2-2.3-0.2-4.7-0.2-7
	c0-57.9,46.9-104.8,104.8-104.8c47.3,0,88.7,31.7,101.2,77.3v0c2.4,8.7,3.6,17.7,3.7,26.8v0C544.8,601.8,544.8,602,544.8,602.3z"/>
<path class="st6" d="M498.4,515.2l-57.6,33.3L393,576.1l-57.6,33.2c-0.2-2.3-0.2-4.7-0.2-7c0-7.8,0.9-15.6,2.6-23.2l133.3-77
	C480.8,505.1,490,509.5,498.4,515.2z"/>
<path class="st6" d="M544.8,601.5L544.8,601.5l-66.2,38.2l0,0l-25.6,14.8L387,692.7c-7.8-4.6-15-10.1-21.3-16.6l47.3-27.3l80.9-46.7
	l47.3-27.3C543.6,583.5,544.8,592.5,544.8,601.5z"/>
<circle class="st7" cx="440" cy="602.3" r="53.8"/>
<path class="st5" d="M684,592.2l2-2c-44.4-11.1-76.5-49.7-79.2-95.5c-0.1-2.1-0.2-4.2-0.2-6.3c0-57.9,46.9-104.8,104.8-104.8
	c57.3,0,104,46,104.8,103.3c0,0.5,0,1,0,1.5c0,6.5-0.6,13-1.8,19.5c-0.3,3.3-0.8,6.5-1.4,9.7v0c-6.3,31.4-27.9,60.7-50.9,82.9
	l-51.1,49.3h47.2c32.9,0,59.5,26.6,59.5,59.5H625.1c0-38.1,15.3-74.5,42.5-101.1L684,592.2z"/>
<path class="st6" d="M789.4,418.2L611.8,520.8c-2.7-8.4-4.4-17.2-4.9-26.1L769.3,401C776.7,405.8,783.4,411.6,789.4,418.2z"/>
<path class="st6" d="M816.3,488.4c0,6.5-0.6,13-1.8,19.5c-0.3,3.3-0.8,6.5-1.4,9.7v0L684,592.2l2-2c-10-2.5-19.5-6.4-28.3-11.7
	l158.5-91.5C816.3,487.4,816.3,487.9,816.3,488.4z"/>
<circle class="st7" cx="711.5" cy="488.4" r="53.8"/>
<path class="st5" d="M1116,604.6c0,0.7,0,1.5,0,2.2c-1.2,57.9-49.1,103.8-107,102.6c-53.2-1.1-97.1-42-102.1-95
	c-0.3-3.3-0.5-6.5-0.5-9.9c0-57.9,46.9-104.8,104.8-104.9c21.8,0,43,6.8,60.8,19.4C1099.6,538.8,1116,570.7,1116,604.6L1116,604.6z"
	/>
<path class="st6" d="M1071.9,519.1l-165.1,95.3c-0.3-3.3-0.5-6.5-0.5-9.9c0-6.7,0.6-13.3,1.9-19.8l137.2-79.2
	C1054.9,508.8,1063.8,513.4,1071.9,519.1z"/>
<path class="st6" d="M1116,604.6c0,0.7,0,1.5,0,2.2l-155.3,89.7c-8-4.4-15.4-9.8-22-16.2L1113,579.7
	C1115,587.8,1116,596.2,1116,604.6z"/>
<ellipse transform="matrix(0.1602 -0.9871 0.9871 0.1602 252.3985 1505.8723)" class="st7" cx="1011.2" cy="604.6" rx="53.8" ry="53.8"/>
<path class="st2" d="M333.9,574.3v8.9c0,0-63.6-4.7-66.9-9.8c-3.3-5.1,4.2-39.3,4.2-39.3l55.2,10.8L333.9,574.3z"/>
<path class="st8" d="M333.9,574.3v8.9c0,0-63.6-4.7-66.9-9.8c-3.3-5.1,4.2-39.3,4.2-39.3l55.2,10.8L333.9,574.3z"/>
<path class="st2" d="M278.7,599.1l34.6,48.7l4.7,3.3l-13.6,20.1l-42.6-49.6c0,0-12.6-12.2-6.6-19.2S278.7,599.1,278.7,599.1z"/>
<path class="st2" d="M315.7,651.1c0,0,7-2.8,11.2,2.8l-6.1,14c0,0-15,22.9-21.1,22.5c-6.1-0.5-4.7-9.4-2.8-10.3s6.5-10,6.5-10
	L315.7,651.1z"/>
<path class="st2" d="M305.8,685.8l0,14c-2.7,5.8-9.3,8.8-15.4,7c-11.2-2.8-1.9-11.7-1.9-11.7l2.8-7.5L305.8,685.8z"/>
<circle class="st9" cx="309.3" cy="428.1" r="14"/>
<polygon class="st9" points="296.9,427.9 294.1,446.1 307.2,464.8 316.6,436.3 "/>
<polygon class="st3" points="300.7,451.7 313.3,446.4 315.2,538.3 275.9,535.5 289.4,447.5 294.7,442.1 "/>
<path class="st2" d="M301.1,460.2l0.3-3.5l3.9,0.7l8.7-13.3l7.2,3.9l19.7,12.6l-8.4,53.8v37c0,0,10.3,19.2,1.9,31.8l-11.7-24.3
	c0,0-22-37.9-21.5-49.6C301.6,497.6,301.1,460.2,301.1,460.2z"/>
<path class="st2" d="M292.7,455l2.2-13.9l-4.5,3.1l-21.1,9.8L259,580.4l24.8,8.9C283.8,589.3,300.2,466.2,292.7,455z"/>
<path class="st2" d="M274,532.2l45.9,1.9c0,0,4.2,25.3,0.9,45.4c-3.3,20.1-15.4,109.5-15.4,109.5h-15.9l6.1-71.1l-1.9-43.1
	L280.1,601l-24.8,1.4L274,532.2z"/>
<path class="st2" d="M315,403.6c1.1-0.2,2.3-0.7,3.2-0.1c0.5,0.4,0.9,0.9,1.1,1.5c1.1,1.7,2.9,2.8,4.6,4s3.4,2.7,3.7,4.7
	c0.3,1.7-0.6,3.5-0.6,5.2c0,2.2,1.2,4.7,0,6.6c-0.5,0.9-1.5,1.4-2,2.3c-1,1.5-1,3.9-2.7,4.5c0.1-2.1,0-4.3-0.4-6.4
	c-0.1-0.6-0.2-1.2-0.5-1.7c-0.8-1.1-2.3-1.3-3.7-1.6c-3.5-0.8-6.5-3-8.2-6.1c0.9,1-0.1,2.7-1.4,3c-1.3,0.1-2.7-0.4-3.6-1.4
	c1.9,4.3-0.1,9.4-4.5,11.2c-0.5,0.2-0.9,0.4-1.4,0.5c0.1-1.6-0.6-3.2-1.9-4.1c-1.4-1-3.3-1.2-4.1-2.7c-0.5-1.2-0.5-2.5,0-3.7
	l1.1-4.6c0.2-2.4,1.6-4.5,3.8-5.6l3.4-2.2c1.1-0.8,2.3-1.4,3.5-1.8c1.1-0.3,2.3,0.1,3.4-0.2c0.9-0.2,1.7-0.9,2.6-1.1
	C312,403.4,313.5,403.9,315,403.6z"/>
<path class="st9" d="M267.5,544.9c0,0,8,20.6-0.5,21.5s-8-18.2-8-18.2L267.5,544.9z"/>
<polygon class="st2" points="274,454.5 271.8,452.9 269.3,453.6 256.7,500.9 252.9,552.3 270.3,545.3 269.3,508.8 "/>
<polygon class="st9" points="323.6,552.8 318.5,558.4 316.2,548.3 "/>
<path class="st2" d="M336.7,461.1l2.4-1.6l1.8,0.7c0,0,15.9,45.9,12.6,57.1c-3.3,11.2-28.1,41.2-28.1,41.2l-11.2-12.2l21.1-31.4
	l-6.6-7.5L336.7,461.1z"/>
<polygon class="st8" points="294.4,631.6 292.2,657 294.4,621.2 295.5,622.8 "/>
<polygon class="st8" points="311.4,645.1 305.8,685.8 313.5,647.6 "/>
<rect y="706.5" class="st6" width="1130" height="2"/>
<circle class="st6" cx="599" cy="598.5" r="27"/>
<path class="st0" d="M882.4,119.3c0,0-37,16.7-44,32.1S882.4,119.3,882.4,119.3z"/>
<path class="st0" d="M881.6,102.6c0,0-34.1-4.6-44.4,3.3S881.6,102.6,881.6,102.6z"/>
<path class="st0" d="M891.4,94.7c0,0-17.1-53.9-13-59.3S891.4,94.7,891.4,94.7z"/>
<path class="st0" d="M897.9,106.6c0,0,9.2-54.5,18.8-54.5S897.9,106.6,897.9,106.6z"/>
<path class="st0" d="M903.3,107.2c0,0,31.6-26.2,96.4-18.2S903.3,107.2,903.3,107.2z"/>
<path class="st0" d="M923.3,110.2c0,0,55.4-1,58.5,6.8S923.3,110.2,923.3,110.2z"/>
<path class="st0" d="M912.5,118.3c0,0,33.4,20.3,26.9,26.5S912.5,118.3,912.5,118.3z"/>
<path class="st0" d="M968,142.5c0,0,27.8,15.2,21.6,25.3S968,142.5,968,142.5z"/>
<path class="st0" d="M916.4,130.4c0,0,57.8,82.9,52.4,88S916.4,130.4,916.4,130.4z"/>
<path class="st0" d="M905.6,124.3c0,0,24.3,53.2,19.4,58.4S905.6,124.3,905.6,124.3z"/>
<path class="st0" d="M895.3,122.3c0,0-21.9,84.8-8.5,83.9S895.3,122.3,895.3,122.3z"/>
<path class="st0" d="M887.7,126.5c0,0-36.8,55.2-33.4,61S887.7,126.5,887.7,126.5z"/>
<path class="st0" d="M876.7,89.4c0,0-32.1-49.7-61.7-44.9S876.7,89.4,876.7,89.4z"/>
<path class="st0" d="M851.6,85.9c0,0-42.4-4-39.3,6.1S851.6,85.9,851.6,85.9z"/>
<path class="st0" d="M862.4,48.5c0,0-2.3-14.2-6.2-11.1S862.4,48.5,862.4,48.5z"/>
<path class="st0" d="M901.5,58.5c0,0,10.6-58.3,5.8-58.5S901.5,58.5,901.5,58.5z"/>
<path class="st0" d="M950.3,66.7c0,0,4.6-15.2,9.3-11.1S950.3,66.7,950.3,66.7z"/>
<path class="st0" d="M906.3,201.2c0,0-6.2,59.7,5.4,58.6S906.3,201.2,906.3,201.2z"/>
<path class="st0" d="M254.5,277.3c0,0-35,11.4-41.7,21.9S254.5,277.3,254.5,277.3z"/>
<path class="st0" d="M253.8,265.9c0,0-32.2-3.1-42,2.2S253.8,265.9,253.8,265.9z"/>
<path class="st0" d="M263,260.5c0,0-16.2-36.7-12.3-40.4S263,260.5,263,260.5z"/>
<path class="st0" d="M269.1,268.6c0,0,8.7-37.1,17.8-37.1S269.1,268.6,269.1,268.6z"/>
<path class="st0" d="M274.2,269c0,0,29.9-17.8,91.2-12.4S274.2,269,274.2,269z"/>
<path class="st0" d="M293.2,271.1c0,0,52.4-0.7,55.4,4.6S293.2,271.1,293.2,271.1z"/>
<path class="st0" d="M283,276.6c0,0,31.7,13.8,25.5,18.1S283,276.6,283,276.6z"/>
<path class="st0" d="M335.5,293.1c0,0,26.3,10.3,20.4,17.2S335.5,293.1,335.5,293.1z"/>
<path class="st0" d="M286.6,284.8c0,0,54.7,56.5,49.6,59.9S286.6,284.8,286.6,284.8z"/>
<path class="st0" d="M276.4,280.7c0,0,23.1,36.2,18.3,39.7S276.4,280.7,276.4,280.7z"/>
<path class="st0" d="M266.7,279.3c0,0-20.7,57.8-8,57.2S266.7,279.3,266.7,279.3z"/>
<path class="st0" d="M259.5,282.2c0,0-34.8,37.6-31.6,41.5S259.5,282.2,259.5,282.2z"/>
<path class="st0" d="M249,256.9c0,0-30.4-33.8-58.4-30.6S249,256.9,249,256.9z"/>
<path class="st0" d="M225.3,254.5c0,0-40.1-2.8-37.2,4.1S225.3,254.5,225.3,254.5z"/>
<path class="st0" d="M235.5,229c0,0-2.2-9.6-5.8-7.6S235.5,229,235.5,229z"/>
<path class="st0" d="M272.5,235.9c0,0,10-39.7,5.5-39.9S272.5,235.9,272.5,235.9z"/>
<path class="st0" d="M318.7,241.4c0,0,4.4-10.3,8.8-7.6S318.7,241.4,318.7,241.4z"/>
<path class="st0" d="M277.1,333c0,0-5.8,40.6,5.1,39.9S277.1,333,277.1,333z"/>
<path class="st5" d="M554.5,257.3c0,0-35,11.4-41.7,21.9S554.5,257.3,554.5,257.3z"/>
<path class="st5" d="M553.8,245.9c0,0-32.2-3.1-42,2.2S553.8,245.9,553.8,245.9z"/>
<path class="st5" d="M563,240.5c0,0-16.2-36.7-12.3-40.4S563,240.5,563,240.5z"/>
<path class="st5" d="M569.1,248.6c0,0,8.7-37.1,17.8-37.1S569.1,248.6,569.1,248.6z"/>
<path class="st5" d="M574.2,249c0,0,55.5-27.7,58.8-13S574.2,249,574.2,249z"/>
<path class="st5" d="M593.2,251.1c0,0,52.4-0.7,55.4,4.6S593.2,251.1,593.2,251.1z"/>
<path class="st5" d="M583,256.6c0,0,31.7,13.8,25.5,18.1S583,256.6,583,256.6z"/>
<path class="st5" d="M635.5,273.1c0,0,26.3,10.3,20.4,17.2S635.5,273.1,635.5,273.1z"/>
<path class="st5" d="M586.6,264.8c0,0,54.7,56.5,49.6,59.9S586.6,264.8,586.6,264.8z"/>
<path class="st5" d="M576.4,260.7c0,0,23.1,36.2,18.3,39.7S576.4,260.7,576.4,260.7z"/>
<path class="st5" d="M566.7,259.3c0,0-16.4,35.3-3.7,34.7S566.7,259.3,566.7,259.3z"/>
<path class="st5" d="M559.5,262.2c0,0-34.8,37.6-31.6,41.5S559.5,262.2,559.5,262.2z"/>
<path class="st5" d="M549,236.9c0,0-10-23.2-38-19.9S549,236.9,549,236.9z"/>
<path class="st5" d="M525.3,234.5c0,0-40.1-2.8-37.2,4.1S525.3,234.5,525.3,234.5z"/>
<path class="st5" d="M535.5,209c0,0-2.2-9.6-5.8-7.6S535.5,209,535.5,209z"/>
<path class="st5" d="M572.5,215.9c0,0,10-39.7,5.5-39.9S572.5,215.9,572.5,215.9z"/>
<path class="st5" d="M618.7,221.4c0,0,4.4-10.3,8.8-7.6S618.7,221.4,618.7,221.4z"/>
<path class="st5" d="M577.1,313c0,0-5.8,40.6,5.1,39.9S577.1,313,577.1,313z"/>
</svg>
