<svg height="512pt" viewBox="0 0 512 512" width="512pt" xmlns="http://www.w3.org/2000/svg" xmlns:xlink="http://www.w3.org/1999/xlink"><linearGradient id="a" gradientUnits="userSpaceOnUse" x1="0" x2="512" y1="256" y2="256"><stop offset="0" stop-color="#41a098"/><stop offset="1" stop-color="#41a098"/></linearGradient><path d="m512 256c0 141.386719-114.613281 256-256 256s-256-114.613281-256-256 114.613281-256 256-256 256 114.613281 256 256zm0 0" fill="url(#a)"/><g fill="#fff"><path d="m374.457031 109.398438h-1.398437v-26.855469h-30v26.855469h-174.117188v-26.855469h-30v26.855469h-1.398437c-30.328125 0-55 24.671874-55 55v210.058593c0 30.328125 24.671875 55 55 55h236.914062c30.328125 0 55-24.671875 55-55v-210.058593c0-30.328126-24.671875-55-55-55zm-236.914062 30h1.398437v26.859374h30v-26.859374h174.117188v26.859374h30v-26.859374h1.398437c13.785157 0 25 11.214843 25 25v17.515624h-286.914062v-17.515624c0-13.785157 11.214843-25 25-25zm236.914062 260.058593h-236.914062c-13.785157 0-25-11.214843-25-25v-162.542969h286.914062v162.542969c0 13.785157-11.214843 25-25 25zm0 0"/><path d="m131.558594 311.285156h77v-77h-77zm30-47h17v17h-17zm0 0"/><path d="m327.84375 252.644531h26.855469v26.855469h-26.855469zm0 0"/><path d="m303.441406 375.070312h77v-77h-77zm30-47h17v17h-17zm0 0"/><path d="m227.800781 252.644531h26.855469v26.855469h-26.855469zm0 0"/><path d="m278.15625 252.644531h26.859375v26.855469h-26.859375zm0 0"/></g></svg>